<svg width="45" height="44" viewBox="0 0 45 44" fill="none" xmlns="http://www.w3.org/2000/svg">
<g clip-path="url(#clip0_2114_124)">
<path d="M44.5 36.8672V31.9258C44.5 31.3088 43.9998 30.8086 43.3828 30.8086C42.7658 30.8086 42.2656 31.3088 42.2656 31.9258V36.8672C42.2656 39.5682 40.0682 41.7656 37.3672 41.7656H32.4258C31.8088 41.7656 31.3086 42.2658 31.3086 42.8828C31.3086 43.4998 31.8088 44 32.4258 44H37.3672C41.3002 44 44.5 40.8002 44.5 36.8672ZM13.6914 42.8828C13.6914 42.2658 13.1912 41.7656 12.5742 41.7656H7.63281C4.93184 41.7656 2.73438 39.5682 2.73438 36.8672V31.9258C2.73438 31.3088 2.23418 30.8086 1.61719 30.8086C1.0002 30.8086 0.5 31.3088 0.5 31.9258V36.8672C0.5 40.8002 3.6998 44 7.63281 44H12.5742C13.1912 44 13.6914 43.4998 13.6914 42.8828ZM2.73438 12.0742V7.13281C2.73438 4.4318 4.93184 2.23438 7.63281 2.23438H12.5742C13.1912 2.23438 13.6914 1.73418 13.6914 1.11719C13.6914 0.500199 13.1912 0 12.5742 0H7.63281C3.6998 0 0.5 3.19975 0.5 7.13281V12.0742C0.5 12.6912 1.0002 13.1914 1.61719 13.1914C2.23418 13.1914 2.73438 12.6912 2.73438 12.0742ZM44.5 12.0742V7.13281C44.5 3.19975 41.3002 0 37.3672 0H32.4258C31.8088 0 31.3086 0.500199 31.3086 1.11719C31.3086 1.73418 31.8088 2.23438 32.4258 2.23438H37.3672C40.0682 2.23438 42.2656 4.4318 42.2656 7.13281V12.0742C42.2656 12.6912 42.7658 13.1914 43.3828 13.1914C43.9998 13.1914 44.5 12.6912 44.5 12.0742ZM30.2098 32.5203C30.6805 32.0855 30.7096 31.3515 30.2749 30.8809C29.8401 30.4102 29.1061 30.3811 28.6354 30.8158C26.9606 32.3629 24.7817 33.2148 22.5 33.2148C20.2183 33.2148 18.0394 32.3629 16.3646 30.8158C15.8938 30.3811 15.16 30.4102 14.7251 30.8809C14.2904 31.3515 14.3195 32.0855 14.7902 32.5203C16.895 34.4645 19.633 35.5352 22.5 35.5352C25.367 35.5352 28.105 34.4645 30.2098 32.5203ZM24.8203 24.8359V16.5859C24.8203 15.9452 24.3009 15.4258 23.6602 15.4258C23.0194 15.4258 22.5 15.9452 22.5 16.5859V24.8359C22.5 25.1913 22.2109 25.4805 21.8555 25.4805H20.9102C20.2694 25.4805 19.75 25.9999 19.75 26.6406C19.75 27.2814 20.2694 27.8008 20.9102 27.8008H21.8555C23.4903 27.8008 24.8203 26.4708 24.8203 24.8359ZM32.8125 19.8301V16.5215C32.8125 15.9164 32.3219 15.4258 31.7168 15.4258C31.1117 15.4258 30.6211 15.9164 30.6211 16.5215V19.8301C30.6211 20.4352 31.1117 20.9258 31.7168 20.9258C32.3219 20.9258 32.8125 20.4352 32.8125 19.8301ZM13.541 20.9258C12.9359 20.9258 12.4453 20.4352 12.4453 19.8301V16.5215C12.4453 15.9164 12.9359 15.4258 13.541 15.4258C14.1461 15.4258 14.6367 15.9164 14.6367 16.5215V19.8301C14.6367 20.4352 14.1461 20.9258 13.541 20.9258Z" fill="#0DB9E9"/>
</g>
<defs>
<clipPath id="clip0_2114_124">
<rect width="44" height="44" fill="white" transform="translate(0.5)"/>
</clipPath>
</defs>
</svg>
